HIERARCHY
ROOT Hips
{
	OFFSET 0.000000 0.000000 0.000000
	CHANNELS 6 Xposition Yposition Zposition Xrotation Yrotation Zrotation
	JOINT LeftUpLeg_virtual
	{
		OFFSET 0.000000 0.000000 0.000000
		CHANNELS 3 Xrotation Yrotation Zrotation
		JOINT LeftUpLeg
		{
			OFFSET 15.427100 -6.655098 0.678600
			CHANNELS 3 Xrotation Yrotation Zrotation
			JOINT LeftLeg
			{
				OFFSET 4.081073 -39.591068 13.024000
				CHANNELS 3 Xrotation Yrotation Zrotation
				JOINT LeftFoot
				{
					OFFSET -4.081074 -37.707932 -15.979700
					CHANNELS 3 Xrotation Yrotation Zrotation
					JOINT LeftToeBase
					{
						OFFSET 5.346399 -15.068900 20.645000
						CHANNELS 3 Xrotation Yrotation Zrotation
						JOINT LeftToe_End
						{
							OFFSET 2.754700 0.931300 11.300900
							CHANNELS 3 Xrotation Yrotation Zrotation
							End Site
							{
								OFFSET 0 0 0
							}
						}
					}
				}
			}
		}
	}
	JOINT RightUpLeg_virtual
	{
		OFFSET 0.000000 0.000000 0.000000
		CHANNELS 3 Xrotation Yrotation Zrotation
		JOINT RightUpLeg
		{
			OFFSET -15.569500 -6.655098 0.678600
			CHANNELS 3 Xrotation Yrotation Zrotation
			JOINT RightLeg
			{
				OFFSET -4.081825 -39.591045 13.023800
				CHANNELS 3 Xrotation Yrotation Zrotation
				JOINT RightFoot
				{
					OFFSET 4.081824 -37.707954 -15.979600
					CHANNELS 3 Xrotation Yrotation Zrotation
					JOINT RightToeBase
					{
						OFFSET -5.346400 -15.068900 20.645000
						CHANNELS 3 Xrotation Yrotation Zrotation
						JOINT RightToe_End
						{
							OFFSET -2.754700 0.931300 11.300900
							CHANNELS 3 Xrotation Yrotation Zrotation
							End Site
							{
								OFFSET 0 0 0
							}
						}
					}
				}
			}
		}
	}
	JOINT Spine_virtual
	{
		OFFSET 0.000000 0.000000 0.000000
		CHANNELS 3 Xrotation Yrotation Zrotation
		JOINT Spine
		{
			OFFSET -0.279200 12.230698 -2.892100
			CHANNELS 3 Xrotation Yrotation Zrotation
			JOINT Spine1
			{
				OFFSET -0.232667 10.192268 -1.242267
				CHANNELS 3 Xrotation Yrotation Zrotation
				JOINT Spine1_split
				{
					OFFSET -0.232667 10.192268 -1.242267
					CHANNELS 3 Xrotation Yrotation Zrotation
					JOINT Spine2
					{
						OFFSET -0.232667 10.192268 -1.242267
						CHANNELS 3 Xrotation Yrotation Zrotation
						JOINT Neck_virtual
						{
							OFFSET 0.000000 0.000000 0.000000
							CHANNELS 3 Xrotation Yrotation Zrotation
							JOINT Neck
							{
								OFFSET -0.418800 17.814194 8.416900
								CHANNELS 3 Xrotation Yrotation Zrotation
								JOINT Head
								{
									OFFSET 0.000000 7.031097 3.806800
									CHANNELS 3 Xrotation Yrotation Zrotation
									JOINT HeadTop_End
									{
										OFFSET 0.000000 24.646606 12.978600
										CHANNELS 3 Xrotation Yrotation Zrotation
										End Site
										{
											OFFSET 0 0 0
										}
									}
								}
							}
						}
						JOINT LeftShoulder_virtual
						{
							OFFSET 0.000000 0.000000 0.000000
							CHANNELS 3 Xrotation Yrotation Zrotation
							JOINT LeftShoulder
							{
								OFFSET 8.476499 7.247704 -3.868750
								CHANNELS 3 Xrotation Yrotation Zrotation
								JOINT LeftShoulder_split
								{
									OFFSET 8.476499 7.247704 -3.868750
									CHANNELS 3 Xrotation Yrotation Zrotation
									JOINT LeftArm
									{
										OFFSET 9.308998 -2.777710 0.208600
										CHANNELS 3 Xrotation Yrotation Zrotation
										JOINT LeftForeArm
										{
											OFFSET 29.972298 0.000000 0.000000
											CHANNELS 3 Xrotation Yrotation Zrotation
											JOINT LeftHand
											{
												OFFSET 26.026505 0.000000 0.000000
												CHANNELS 3 Xrotation Yrotation Zrotation
												End Site
												{
													OFFSET 0 0 0
												}
											}
										}
									}
								}
							}
						}
						JOINT RightShoulder_virtual
						{
							OFFSET 0.000000 0.000000 0.000000
							CHANNELS 3 Xrotation Yrotation Zrotation
							JOINT RightShoulder
							{
								OFFSET -7.570500 7.247704 -3.868750
								CHANNELS 3 Xrotation Yrotation Zrotation
								JOINT RightShoulder_split
								{
									OFFSET -7.570500 7.247704 -3.868750
									CHANNELS 3 Xrotation Yrotation Zrotation
									JOINT RightArm
									{
										OFFSET -9.308998 -2.777710 0.208500
										CHANNELS 3 Xrotation Yrotation Zrotation
										JOINT RightForeArm
										{
											OFFSET -29.972300 0.000000 0.000000
											CHANNELS 3 Xrotation Yrotation Zrotation
											JOINT RightHand
											{
												OFFSET -26.026505 0.000000 0.000000
												CHANNELS 3 Xrotation Yrotation Zrotation
												End Site
												{
													OFFSET 0 0 0
												}
											}
										}
									}
								}
							}
						}
					}
				}
			}
		}
	}
}
MOTION
Frames: 8
Frame Time: 0.03333333
7.376657 92.577103 -5.348438 0.000000 0.000000 0.000000 -0.943641 -21.919354 -1.474449 -4.194362 5.804983 0.106947 16.432626 9.695944 2.354826 -11.683970 19.809215 -3.544962 -2.202181 0.118606 -1.923305 0.000000 0.000000 0.000000 -0.064264 -22.102221 -1.466009 -14.271138 -8.980287 -12.702778 16.120198 3.431717 3.267898 -5.101984 -4.009042 7.128099 -7.719505 0.787118 0.977253 0.000000 0.000000 0.000000 -0.210543 -22.677741 -2.188059 3.888705 1.534127 -1.586200 0.399531 -0.029216 0.131097 1.109143 0.365822 0.217904 0.000000 0.000000 0.000000 1.240642 0.423949 -0.295540 1.075022 -1.035925 2.319367 13.131269 10.245685 5.646014 0.000000 0.000000 0.000000 0.791999 0.440197 -0.166289 2.236458 -2.906380 -11.600786 -0.458978 -1.108106 -1.961984 -6.695611 -19.050338 -55.841318 0.488717 -14.136153 0.368330 0.000000 0.000000 0.000000 0.878913 0.442505 -0.125349 2.343090 -2.518531 16.606804 -0.733268 2.922131 -3.093057 7.171967 2.348278 65.645078 1.853612 20.024796 1.512433 0.000000 0.000000 0.000000 
7.746572 92.591721 -5.120365 0.000000 0.000000 0.000000 -0.875094 -22.733484 -1.646648 -4.109091 5.875546 -0.152557 16.377095 9.743313 2.288673 -11.908708 20.594468 -3.397295 -2.258883 0.141792 -1.845574 0.000000 0.000000 0.000000 -0.039854 -22.822119 -1.641806 -14.497628 -8.995362 -12.635590 15.903083 3.519270 3.187816 -5.164272 -3.883960 6.985389 -7.493611 0.767999 0.992567 0.000000 0.000000 0.000000 -0.171504 -23.478169 -2.372261 3.642700 1.073072 -1.734366 0.348406 -0.116488 0.110276 1.175439 0.381861 0.216650 0.000000 0.000000 0.000000 1.214446 0.328795 -0.316503 1.054817 -1.123715 2.409570 13.390040 11.193869 5.953694 0.000000 0.000000 0.000000 0.745049 0.360141 -0.187587 2.187817 -3.148244 -11.497563 -0.558206 -1.049954 -1.963335 -7.005357 -20.691261 -56.141310 0.489945 -14.652743 0.389774 0.000000 0.000000 0.000000 0.846003 0.358091 -0.168139 2.403996 -3.070485 16.960114 -0.793415 2.827902 -3.162828 6.747478 2.966808 66.193604 1.880642 20.525248 1.513788 0.000000 0.000000 0.000000 
8.096397 92.589935 -4.868362 0.000000 0.000000 0.000000 -0.795173 -23.532531 -1.812980 -4.079249 5.979945 -0.348484 16.349277 9.788349 2.253045 -12.107472 21.339826 -3.227260 -2.325245 0.164438 -1.765819 0.000000 0.000000 0.000000 0.002873 -23.524001 -1.817484 -14.707272 -9.005524 -12.543003 15.642004 3.531552 3.080383 -5.141710 -3.762532 6.810992 -7.198207 0.754388 1.002163 0.000000 0.000000 0.000000 -0.110087 -24.239716 -2.545989 3.422220 0.581065 -1.918692 0.296489 -0.197752 0.073217 1.235119 0.404320 0.217388 0.000000 0.000000 0.000000 1.187611 0.235910 -0.348346 1.047035 -1.206458 2.495590 13.647451 12.069612 6.342954 0.000000 0.000000 0.000000 0.701891 0.286961 -0.218816 2.126496 -3.442064 -11.330866 -0.650950 -0.990956 -1.951363 -7.178281 -22.424462 -56.454109 0.513840 -15.536303 0.423775 0.000000 0.000000 0.000000 0.824300 0.276875 -0.228185 2.468206 -3.653945 17.356697 -0.862585 2.699084 -3.196560 6.191657 3.695985 66.665310 1.907942 21.039090 1.515438 0.000000 0.000000 0.000000 
8.416356 92.585709 -4.610821 0.000000 0.000000 0.000000 -0.679536 -24.269769 -1.959373 -4.115498 6.108500 -0.492888 16.339409 9.829349 2.255826 -12.245514 22.021676 -3.037469 -2.411648 0.186374 -1.691973 0.000000 0.000000 0.000000 0.095701 -24.182968 -1.974948 -14.881375 -8.982962 -12.449402 15.309056 3.483952 2.940821 -4.949477 -3.638593 6.715879 -7.012449 0.744468 1.001280 0.000000 0.000000 0.000000 0.000446 -24.927267 -2.691356 3.213961 0.058926 -2.161689 0.238676 -0.276540 0.015233 1.250189 0.423091 0.235479 0.000000 0.000000 0.000000 1.151774 0.143326 -0.396590 1.048784 -1.286379 2.601823 13.918659 12.858387 6.811837 0.000000 0.000000 0.000000 0.658825 0.219031 -0.264201 2.052919 -3.775825 -11.085569 -0.727827 -0.926298 -1.921150 -7.192427 -24.216692 -56.806188 0.570277 -16.845729 0.469190 0.000000 0.000000 0.000000 0.808154 0.196799 -0.310251 2.537225 -4.272091 17.775786 -0.930318 2.536074 -3.200254 5.575022 4.496760 67.047077 1.931386 21.539019 1.527487 0.000000 0.000000 0.000000 
8.700130 92.592888 -4.346733 0.000000 0.000000 0.000000 -0.509377 -24.907956 -2.085510 -4.246931 6.255357 -0.578913 16.339329 9.858202 2.297075 -12.302888 22.607376 -2.859195 -2.491199 0.205870 -1.633979 0.000000 0.000000 0.000000 0.259775 -24.787735 -2.107515 -14.991825 -8.909442 -12.336734 14.857350 3.373691 2.767423 -4.600768 -3.518985 6.744938 -6.973134 0.734610 0.994513 0.000000 0.000000 0.000000 0.174802 -25.516463 -2.809341 3.006778 -0.486870 -2.480438 0.172492 -0.359011 -0.060430 1.259551 0.445358 0.281348 0.000000 0.000000 0.000000 1.104544 0.048553 -0.461700 1.041198 -1.369067 2.750522 14.207299 13.542984 7.360534 0.000000 0.000000 0.000000 0.615731 0.150421 -0.323022 1.970066 -4.138894 -10.756789 -0.790732 -0.843986 -1.899470 -7.077949 -26.003708 -57.214780 0.650543 -18.519218 0.512508 0.000000 0.000000 0.000000 0.791136 0.112882 -0.410835 2.611831 -4.916816 18.193638 -0.969789 2.347207 -3.181415 4.984397 5.316252 67.356969 1.953065 22.046111 1.551830 0.000000 0.000000 0.000000 
8.948746 92.615585 -4.086037 0.000000 0.000000 0.000000 -0.271829 -25.433229 -2.196257 -4.481843 6.412955 -0.593447 16.365842 9.860140 2.367140 -12.265935 23.072113 -2.741388 -2.538133 0.222030 -1.590270 0.000000 0.000000 0.000000 0.492466 -25.303991 -2.221073 -15.016304 -8.776680 -12.176311 14.290142 3.195168 2.562317 -4.201923 -3.408590 6.861971 -6.967775 0.725583 0.994106 0.000000 0.000000 0.000000 0.421244 -26.013470 -2.904734 2.801926 -1.041348 -2.880632 0.097429 -0.450821 -0.147773 1.260091 0.461265 0.325253 0.000000 0.000000 0.000000 1.047870 -0.051204 -0.537922 1.020921 -1.456297 2.958147 14.510554 14.099751 7.981881 0.000000 0.000000 0.000000 0.572765 0.073847 -0.391130 1.881498 -4.523790 -10.363908 -0.850045 -0.722620 -1.888869 -6.852634 -27.717094 -57.671747 0.732255 -20.413593 0.542108 0.000000 0.000000 0.000000 0.771759 0.019900 -0.522447 2.692667 -5.569515 18.580927 -0.971265 2.166909 -3.144623 4.501747 6.100967 67.621243 1.977854 22.593460 1.585558 0.000000 0.000000 0.000000 
9.167851 92.654892 -3.836308 0.000000 0.000000 0.000000 0.028805 -25.874427 -2.299546 -4.832486 6.556058 -0.530517 16.450955 9.828289 2.456406 -12.148486 23.418410 -2.710837 -2.542831 0.237816 -1.556022 0.000000 0.000000 0.000000 0.783547 -25.717831 -2.324359 -14.937631 -8.594927 -11.934545 13.672237 2.921992 2.328804 -3.853358 -3.327280 6.969718 -6.858875 0.719841 1.017407 0.000000 0.000000 0.000000 0.725939 -26.441156 -2.993322 2.607620 -1.578634 -3.359301 0.021213 -0.551473 -0.237562 1.252649 0.467601 0.378389 0.000000 0.000000 0.000000 0.986008 -0.155708 -0.617984 0.986460 -1.548386 3.222486 14.820575 14.520364 8.660987 0.000000 0.000000 0.000000 0.534185 -0.013701 -0.461929 1.789065 -4.916853 -9.925551 -0.935646 -0.597533 -1.894783 -6.561515 -29.246829 -58.142764 0.773219 -22.352083 0.545820 0.000000 0.000000 0.000000 0.750523 -0.083336 -0.634962 2.776651 -6.202816 18.912977 -0.958404 2.006399 -3.097335 4.172152 6.815565 67.858810 2.006969 23.200962 1.620797 0.000000 0.000000 0.000000 
9.361283 92.702614 -3.603752 0.000000 0.000000 0.000000 0.374054 -26.249933 -2.410727 -5.273741 6.688773 -0.393924 16.604152 9.786893 2.564055 -12.023404 23.670837 -2.732111 -2.503953 0.253823 -1.523627 0.000000 0.000000 0.000000 1.102811 -26.058350 -2.436412 -14.782109 -8.383009 -11.600898 13.055983 2.556752 2.077472 -3.586099 -3.281028 7.051284 -6.644526 0.718888 1.062700 0.000000 0.000000 0.000000 1.071320 -26.824945 -3.090909 2.447779 -2.069591 -3.903607 -0.049668 -0.654835 -0.322436 1.257120 0.464709 0.398527 0.000000 0.000000 0.000000 0.925437 -0.260849 -0.694446 0.942210 -1.638252 3.529073 15.118685 14.803802 9.363436 0.000000 0.000000 0.000000 0.503965 -0.110130 -0.529161 1.698933 -5.307705 -9.479801 -1.034056 -0.459404 -1.913073 -6.273698 -30.524040 -58.583858 0.757639 -24.181798 0.523296 0.000000 0.000000 0.000000 0.733229 -0.189607 -0.738800 2.859232 -6.782472 19.173429 -0.947264 1.882746 -3.042541 4.012561 7.422299 68.076625 2.046847 23.868287 1.649218 0.000000 0.000000 0.000000 
